<svg width="8" height="15" viewBox="0 0 8 15" fill="none" xmlns="http://www.w3.org/2000/svg">
<path d="M0.870212 13.0861L0.870097 13.086L0.865602 13.0912C0.685237 13.3017 0.684716 13.6312 0.895299 13.8418C0.989374 13.9359 1.13704 13.9951 1.26387 13.9951C1.42264 13.9951 1.5463 13.9279 1.65431 13.8199L1.65436 13.82L1.65771 13.8164L7.16979 7.93248C7.16985 7.93243 7.1699 7.93237 7.16996 7.93231C7.59769 7.47923 7.59387 6.73477 7.17253 6.26385L7.17256 6.26382L7.17002 6.26111L1.65752 0.398611L1.65757 0.398563L1.65431 0.395299C1.454 0.194997 1.11779 0.150934 0.895299 0.373424C0.695526 0.573197 0.651169 0.908167 0.871667 1.13067L6.37922 6.98791C6.4442 7.06886 6.43141 7.17481 6.38592 7.2203L6.38587 7.22025L6.38271 7.22361L0.870212 13.0861Z" fill="#838995" stroke="#838995" stroke-width="0.3"/>
</svg>
