<svg width="18" height="18" viewBox="0 0 18 18" fill="none" xmlns="http://www.w3.org/2000/svg">
<path fill-rule="evenodd" clip-rule="evenodd" d="M7.87661 1.0521C8.21826 0.855226 8.60566 0.751587 9 0.751587C9.39435 0.751587 9.78177 0.855234 10.1234 1.05213C10.124 1.05243 10.1245 1.05273 10.125 1.05303L15.375 4.05302C15.7167 4.25031 16.0005 4.53398 16.198 4.87559C16.3954 5.21719 16.4996 5.60471 16.5 5.99928V12.0008C16.4996 12.3954 16.3954 12.7829 16.198 13.1245C16.0005 13.4661 15.7167 13.7498 15.375 13.9471L15.3721 13.9487L10.125 16.9471C10.1245 16.9473 10.1241 16.9476 10.1237 16.9478C9.78194 17.1448 9.39444 17.2485 9 17.2485C8.60558 17.2485 8.21809 17.1448 7.87639 16.9479C7.87593 16.9476 7.87546 16.9473 7.875 16.9471L2.6279 13.9487L2.625 13.9471C2.2833 13.7498 1.99948 13.4661 1.80202 13.1245C1.60456 12.7829 1.5004 12.3954 1.5 12.0008V5.99928C1.5004 5.60471 1.60456 5.21719 1.80202 4.87559C1.99948 4.53398 2.2833 4.25031 2.625 4.05303L2.62789 4.05136L7.87661 1.0521ZM9 2.25159C8.86835 2.25159 8.73901 2.28624 8.625 2.35207L8.62211 2.35374L3.375 5.35207C3.37461 5.3523 3.37421 5.35252 3.37382 5.35275C3.26044 5.41848 3.16626 5.51278 3.10067 5.62625C3.03491 5.74003 3.00019 5.86908 3 6.00049V11.9996C3.00019 12.131 3.03491 12.2601 3.10067 12.3738C3.16626 12.4873 3.26044 12.5816 3.37382 12.6473C3.37421 12.6476 3.37461 12.6478 3.375 12.648L8.625 15.648C8.73901 15.7139 8.86835 15.7485 9 15.7485C9.13165 15.7485 9.26098 15.7139 9.375 15.648L9.3779 15.6464L14.625 12.648C14.6254 12.6478 14.6258 12.6476 14.6262 12.6473C14.7396 12.5816 14.8337 12.4873 14.8993 12.3738C14.9651 12.26 14.9999 12.1308 15 11.9993V6.00082C14.9999 5.8693 14.9651 5.74012 14.8993 5.62625C14.8337 5.51278 14.7396 5.41849 14.6262 5.35276C14.6258 5.35253 14.6254 5.3523 14.625 5.35207L9.375 2.35207C9.26098 2.28625 9.13165 2.25159 9 2.25159Z" fill="#637381"/>
<path fill-rule="evenodd" clip-rule="evenodd" d="M1.80307 4.84443C2.01047 4.48588 2.46927 4.36336 2.82782 4.57077L8.99977 8.14103L15.1717 4.57077C15.5303 4.36336 15.9891 4.48588 16.1965 4.84443C16.4039 5.20298 16.2814 5.66177 15.9228 5.86918L9.37531 9.65668C9.14299 9.79107 8.85656 9.79107 8.62423 9.65668L2.07673 5.86918C1.71818 5.66177 1.59566 5.20298 1.80307 4.84443Z" fill="#637381"/>
<path fill-rule="evenodd" clip-rule="evenodd" d="M9 8.25C9.41421 8.25 9.75 8.58579 9.75 9V16.56C9.75 16.9742 9.41421 17.31 9 17.31C8.58579 17.31 8.25 16.9742 8.25 16.56V9C8.25 8.58579 8.58579 8.25 9 8.25Z" fill="#637381"/>
</svg>
