<svg width="20" height="20" viewBox="0 0 20 20" fill="none" xmlns="http://www.w3.org/2000/svg">
<g opacity="0.5">
<path fill-rule="evenodd" clip-rule="evenodd" d="M15.5896 5.58922C15.915 5.26378 15.915 4.73614 15.5896 4.4107C15.2641 4.08527 14.7365 4.08527 14.4111 4.4107L10.0003 8.82145L5.58958 4.4107C5.26414 4.08527 4.73651 4.08527 4.41107 4.4107C4.08563 4.73614 4.08563 5.26378 4.41107 5.58922L8.82181 9.99996L4.41107 14.4107C4.08563 14.7361 4.08563 15.2638 4.41107 15.5892C4.73651 15.9147 5.26414 15.9147 5.58958 15.5892L10.0003 11.1785L14.4111 15.5892C14.7365 15.9147 15.2641 15.9147 15.5896 15.5892C15.915 15.2638 15.915 14.7361 15.5896 14.4107L11.1788 9.99996L15.5896 5.58922Z" fill="#637381"/>
</g>
</svg>
