<svg width="15" height="16" viewBox="0 0 15 16" fill="none" xmlns="http://www.w3.org/2000/svg">
<path d="M13.3503 15.1503H10.2162C9.51976 15.1503 8.93937 14.5697 8.93937 13.8729V11.3182C8.93937 11.0627 8.73043 10.8537 8.47505 10.8537H6.54816C6.29279 10.8537 6.08385 11.0627 6.08385 11.3182V13.8497C6.08385 14.5464 5.50346 15.127 4.80699 15.127H1.62646C0.929989 15.127 0.349599 14.5464 0.349599 13.8497V5.74431C0.349599 5.39594 0.535324 5.0708 0.837127 4.885L6.96604 1.0065C7.29106 0.797479 7.73216 0.797479 8.05717 1.0065L14.1861 4.885C14.4879 5.0708 14.6504 5.39594 14.6504 5.74431V13.8265C14.6504 14.5697 14.07 15.1503 13.3503 15.1503ZM6.52495 10.0409H8.45184C9.14831 10.0409 9.7287 10.6215 9.7287 11.3182V13.8497C9.7287 14.1052 9.93764 14.3142 10.193 14.3142H13.3503C13.6057 14.3142 13.8146 14.1052 13.8146 13.8497V5.76754C13.8146 5.69786 13.7682 5.62819 13.7218 5.58174L7.61608 1.70324C7.54643 1.65679 7.45357 1.65679 7.40714 1.70324L1.27822 5.58174C1.20858 5.62819 1.18536 5.69786 1.18536 5.76754V13.8729C1.18536 14.1284 1.3943 14.3374 1.64967 14.3374H4.80699C5.06236 14.3374 5.2713 14.1284 5.2713 13.8729V11.3182C5.24809 10.6215 5.82848 10.0409 6.52495 10.0409Z" fill="#637381"/>
<path fill-rule="evenodd" clip-rule="evenodd" d="M7.51145 2.05106L13.465 5.83294V13.8497C13.465 13.912 13.4126 13.9644 13.3503 13.9644H10.193C10.1307 13.9644 10.0783 13.912 10.0783 13.8497V11.3182C10.0783 10.4283 9.34138 9.69112 8.45184 9.69112H6.52495C5.63986 9.69112 4.89529 10.4252 4.9217 11.3237V13.8729C4.9217 13.9352 4.86929 13.9877 4.80699 13.9877H1.64967C1.58738 13.9877 1.53496 13.9352 1.53496 13.8729V5.83311L7.51145 2.05106ZM1.27822 5.58174L7.40714 1.70324C7.45357 1.65679 7.54643 1.65679 7.61608 1.70324L13.7218 5.58174C13.7682 5.62819 13.8146 5.69786 13.8146 5.76754V13.8497C13.8146 14.1052 13.6057 14.3142 13.3503 14.3142H10.193C9.93764 14.3142 9.7287 14.1052 9.7287 13.8497V11.3182C9.7287 10.6215 9.14831 10.0409 8.45184 10.0409H6.52495C5.82848 10.0409 5.24809 10.6215 5.2713 11.3182V13.8729C5.2713 14.1284 5.06236 14.3374 4.80699 14.3374H1.64967C1.3943 14.3374 1.18536 14.1284 1.18536 13.8729V5.76754C1.18536 5.69786 1.20858 5.62819 1.27822 5.58174ZM13.3503 15.5H10.2162C9.32668 15.5 8.58977 14.7628 8.58977 13.8729V11.3182C8.58977 11.2559 8.53735 11.2035 8.47505 11.2035H6.54816C6.48587 11.2035 6.43345 11.2559 6.43345 11.3182V13.8497C6.43345 14.7396 5.69654 15.4768 4.80699 15.4768H1.62646C0.736911 15.4768 0 14.7396 0 13.8497V5.74431C0 5.27131 0.251303 4.83591 0.651944 4.58836L6.77814 0.711575C7.21781 0.429475 7.80541 0.429475 8.24508 0.711576C8.24546 0.711821 8.24584 0.712066 8.24622 0.712311L14.3713 4.58838C14.7853 4.84424 15 5.28759 15 5.74431V13.8265C15 14.7587 14.2671 15.5 13.3503 15.5ZM14.1861 4.885L8.05717 1.0065C7.73216 0.797479 7.29106 0.797479 6.96604 1.0065L0.837127 4.885C0.535324 5.0708 0.349599 5.39594 0.349599 5.74431V13.8497C0.349599 14.5464 0.929989 15.127 1.62646 15.127H4.80699C5.50346 15.127 6.08385 14.5464 6.08385 13.8497V11.3182C6.08385 11.0627 6.29279 10.8537 6.54816 10.8537H8.47505C8.73043 10.8537 8.93937 11.0627 8.93937 11.3182V13.8729C8.93937 14.5697 9.51976 15.1503 10.2162 15.1503H13.3503C14.07 15.1503 14.6504 14.5697 14.6504 13.8265V5.74431C14.6504 5.39594 14.4879 5.0708 14.1861 4.885Z" fill="#637381"/>
</svg>
