<svg width="40" height="40" viewBox="0 0 40 40" fill="none" xmlns="http://www.w3.org/2000/svg">
<g clip-path="url(#clip0_72_55)">
<path opacity="0.72" d="M39.9359 18.3521C39.9163 18.1526 39.8239 17.9672 39.6764 17.8315C39.5288 17.6957 39.3364 17.6191 39.1359 17.6161H19.2C18.6586 17.6293 18.1301 17.7839 17.667 18.0646C17.2039 18.3453 16.8222 18.7423 16.56 19.2161C16.3172 19.6398 16.1895 20.1197 16.1895 20.6081C16.1895 21.0965 16.3172 21.5763 16.56 22.0001C16.6293 22.1333 16.7321 22.2462 16.8584 22.3276C16.9847 22.409 17.1299 22.456 17.2799 22.4641H39.184C39.3845 22.4611 39.5769 22.3844 39.7244 22.2487C39.872 22.1129 39.9643 21.9276 39.984 21.7281C39.984 21.1041 39.984 20.5761 39.984 20.1281C39.984 19.6801 39.9839 18.9601 39.9359 18.3521Z" fill="#3056D3"/>
<path d="M39.9198 18.3521C39.904 18.1539 39.815 17.9688 39.67 17.8327C39.5251 17.6967 39.3346 17.6194 39.1358 17.6161H35.9358C35.8236 17.6174 35.7128 17.6422 35.6108 17.6891C35.5088 17.736 35.4179 17.8038 35.3438 17.8881C35.2693 17.9692 35.2134 18.0657 35.1802 18.1707C35.147 18.2758 35.1374 18.3869 35.1519 18.4961C35.1519 19.0081 35.1519 19.5201 35.1519 20.0961C35.1478 22.6492 34.5008 25.1602 33.2704 27.3973C32.04 29.6343 30.2658 31.5255 28.1118 32.8961C27.8878 33.0401 27.6799 33.2161 27.4399 33.3441C26.2658 34.0127 25.0062 34.5187 23.6958 34.8481L25.7919 38.5761C25.863 38.6994 25.9658 38.8014 26.0896 38.8717C26.2133 38.942 26.3535 38.9781 26.4958 38.9761C26.5804 38.9914 26.6672 38.9914 26.7519 38.9761L27.2638 38.7681L27.7278 38.5761C28.4356 38.2821 29.1249 37.9455 29.7919 37.5681C32.9114 35.8108 35.5034 33.2502 37.2985 30.1524C39.0937 27.0545 40.0265 23.5324 39.9999 19.9521C39.9999 19.3601 39.9678 18.8961 39.9198 18.3521Z" fill="#3056D3"/>
<path d="M28.5946 33.5388C28.4871 33.3563 28.3162 33.2196 28.1146 33.1548H27.8905C27.7516 33.1559 27.6148 33.1887 27.4905 33.2508C25.209 34.549 22.6276 35.2275 20.0026 35.2188C15.9739 35.2103 12.1127 33.6062 9.26396 30.7575C6.41524 27.9088 4.81109 24.0475 4.80264 20.0188C4.81109 15.9901 6.41524 12.1288 9.26396 9.28011C12.1127 6.43139 15.9739 4.82725 20.0026 4.81879C22.6264 4.81963 25.2054 5.49748 27.4905 6.78679C27.61 6.86261 27.7491 6.90156 27.8905 6.89879H28.0665C28.1762 6.87457 28.2798 6.82797 28.3706 6.7619C28.4615 6.69582 28.5378 6.61169 28.5946 6.51479L30.1946 3.73079C30.3004 3.54563 30.3295 3.32642 30.2757 3.12009C30.2219 2.91375 30.0893 2.73669 29.9065 2.62679C26.8949 0.924898 23.4939 0.0319195 20.0347 0.034797C14.7329 0.0432594 9.65075 2.15311 5.90186 5.90201C2.15296 9.6509 0.0431304 14.7331 0.034668 20.0348C0.0431304 25.3365 2.15296 30.4187 5.90186 34.1676C9.65075 37.9165 14.7329 40.0263 20.0347 40.0348C23.4939 40.0377 26.8949 39.1447 29.9065 37.4428C29.9981 37.3914 30.0784 37.3222 30.1427 37.2392C30.207 37.1562 30.2539 37.0612 30.2808 36.9597C30.3076 36.8583 30.3139 36.7524 30.2991 36.6485C30.2843 36.5446 30.2488 36.4447 30.1946 36.3548L28.5946 33.5388Z" fill="#3056D3"/>
<path opacity="0.56" d="M22.2878 22.4H17.2319C17.0885 22.3898 16.9496 22.3452 16.8271 22.27C16.7045 22.1948 16.6019 22.0912 16.5278 21.968L25.8239 38.432C25.8951 38.5553 25.9978 38.6573 26.1216 38.7277C26.2453 38.798 26.3855 38.834 26.5278 38.832C26.6179 38.8472 26.7099 38.8472 26.7999 38.832C27.8571 38.4514 28.8796 37.9803 29.856 37.424C29.9475 37.3726 30.0276 37.3034 30.0919 37.2204C30.1562 37.1375 30.2031 37.0424 30.23 36.9409C30.2568 36.8395 30.2631 36.7336 30.2483 36.6297C30.2335 36.5258 30.198 36.4259 30.1438 36.336L22.2878 22.4Z" fill="#3056D3"/>
</g>
<defs>
<clipPath id="clip0_72_55">
<rect width="40" height="40" fill="white"/>
</clipPath>
</defs>
</svg>
