<svg width="18" height="18" viewBox="0 0 18 18" fill="none" xmlns="http://www.w3.org/2000/svg">
<path fill-rule="evenodd" clip-rule="evenodd" d="M9.4 2.8C5.75492 2.8 2.8 5.75492 2.8 9.4C2.8 13.0451 5.75492 16 9.4 16C13.0451 16 16 13.0451 16 9.4C16 5.75492 13.0451 2.8 9.4 2.8ZM1 9.4C1 4.76081 4.76081 1 9.4 1C14.0392 1 17.8 4.76081 17.8 9.4C17.8 14.0392 14.0392 17.8 9.4 17.8C4.76081 17.8 1 14.0392 1 9.4Z" fill="#3056D3"/>
<path fill-rule="evenodd" clip-rule="evenodd" d="M9.4 5.5C9.89706 5.5 10.3 5.90294 10.3 6.4V12.4C10.3 12.8971 9.89706 13.3 9.4 13.3C8.90294 13.3 8.5 12.8971 8.5 12.4V6.4C8.5 5.90294 8.90294 5.5 9.4 5.5Z" fill="#3056D3"/>
<path fill-rule="evenodd" clip-rule="evenodd" d="M5.5 9.4C5.5 8.90294 5.90294 8.5 6.4 8.5H12.4C12.8971 8.5 13.3 8.90294 13.3 9.4C13.3 9.89706 12.8971 10.3 12.4 10.3H6.4C5.90294 10.3 5.5 9.89706 5.5 9.4Z" fill="#3056D3"/>
</svg>
