<svg width="18" height="18" viewBox="0 0 18 18" fill="none" xmlns="http://www.w3.org/2000/svg">
<path fill-rule="evenodd" clip-rule="evenodd" d="M1.5 2.25C1.5 1.83579 1.83579 1.5 2.25 1.5H7.5C7.91421 1.5 8.25 1.83579 8.25 2.25V7.5C8.25 7.91421 7.91421 8.25 7.5 8.25H2.25C1.83579 8.25 1.5 7.91421 1.5 7.5V2.25ZM3 3V6.75H6.75V3H3Z" fill="#637381"/>
<path fill-rule="evenodd" clip-rule="evenodd" d="M9.75 2.25C9.75 1.83579 10.0858 1.5 10.5 1.5H15.75C16.1642 1.5 16.5 1.83579 16.5 2.25V7.5C16.5 7.91421 16.1642 8.25 15.75 8.25H10.5C10.0858 8.25 9.75 7.91421 9.75 7.5V2.25ZM11.25 3V6.75H15V3H11.25Z" fill="#637381"/>
<path fill-rule="evenodd" clip-rule="evenodd" d="M9.75 10.5C9.75 10.0858 10.0858 9.75 10.5 9.75H15.75C16.1642 9.75 16.5 10.0858 16.5 10.5V15.75C16.5 16.1642 16.1642 16.5 15.75 16.5H10.5C10.0858 16.5 9.75 16.1642 9.75 15.75V10.5ZM11.25 11.25V15H15V11.25H11.25Z" fill="#637381"/>
<path fill-rule="evenodd" clip-rule="evenodd" d="M1.5 10.5C1.5 10.0858 1.83579 9.75 2.25 9.75H7.5C7.91421 9.75 8.25 10.0858 8.25 10.5V15.75C8.25 16.1642 7.91421 16.5 7.5 16.5H2.25C1.83579 16.5 1.5 16.1642 1.5 15.75V10.5ZM3 11.25V15H6.75V11.25H3Z" fill="#637381"/>
</svg>
