<svg width="18" height="18" viewBox="0 0 18 18" fill="none" xmlns="http://www.w3.org/2000/svg">
<path fill-rule="evenodd" clip-rule="evenodd" d="M7.97596 3.70322C5.27472 3.70322 3.08494 5.89301 3.08494 8.59425C3.08494 11.2955 5.27472 13.4853 7.97596 13.4853C10.6772 13.4853 12.867 11.2955 12.867 8.59425C12.867 5.89301 10.6772 3.70322 7.97596 3.70322ZM1.6875 8.59425C1.6875 5.12123 4.50294 2.30579 7.97596 2.30579C11.449 2.30579 14.2644 5.12123 14.2644 8.59425C14.2644 12.0673 11.449 14.8827 7.97596 14.8827C4.50294 14.8827 1.6875 12.0673 1.6875 8.59425Z" fill="#637381"/>
<path fill-rule="evenodd" clip-rule="evenodd" d="M11.4293 12.0479C11.7021 11.775 12.1445 11.775 12.4174 12.0479L15.4568 15.0873C15.7297 15.3602 15.7297 15.8026 15.4568 16.0755C15.184 16.3483 14.7415 16.3483 14.4687 16.0755L11.4293 13.036C11.1564 12.7632 11.1564 12.3208 11.4293 12.0479Z" fill="#637381"/>
</svg>
