<svg width="22" height="22" viewBox="0 0 22 22" fill="none" xmlns="http://www.w3.org/2000/svg">
<path d="M20.3353 10.1337H11.8333V1.59953C11.8333 1.08619 11.4803 0.733276 10.967 0.733276C10.4537 0.733276 10.1008 1.08619 10.1008 1.59953V10.1658H1.59867C1.08534 10.1337 0.732422 10.4866 0.732422 10.9999C0.732422 11.5133 1.08534 11.8662 1.59867 11.8662H10.1328V20.4324C10.1328 20.9458 10.4858 21.2987 10.9991 21.2987C11.5124 21.2987 11.8653 20.9458 11.8653 20.4324V11.8341H20.3995C20.9128 11.8341 21.2658 11.4812 21.2658 10.9679C21.2016 10.4866 20.8487 10.1337 20.3353 10.1337Z" fill="white"/>
</svg>
